<?xml version="1.0" encoding="UTF-8"?>
<svg enable-background="new 0 0 1768.05 1763.411" version="1.1" viewBox="0 0 1768.05 1763.411" xmlns="http://www.w3.org/2000/svg">
 <path d="m878.19 81.87c1.837-0.245-2.846-0.091 66.316-0.141 1.469 3.688 2.13 7.821 4.457 11.101 4.859 0.965 16.035-0.302 33.852 15.033 9.898 8.724 20.624 12.725 29.31 23.614 12.943 19.403 43.863 53.21 42.936 103.19 0.535 23.977-7.356 29.677-2.083 36.137 14.445 20.54 8.531 43.733 1.581 67.338-8.688 24.086-34.885 30.676-37.333 44.395-0.509 2.076-3.111 74.813-2.665 78.829 2.175 16.065-1.153 50.538 51.949 58.564 16.391 1.97 51.946 18.113 92.36 29.306 85.238 23.809 36.232 3.049 79.669 38.539 44.942 37.037 35.103 84.961 37.681 111.35 2.54 55.392-8.884 105.74-12.129 136.11-9.616 89.177 18.004 192.58 33.317 202.24 49.613 30.345 75.484 57.837 118.84 71.627 3.74 1.028 5.677 5.002 9.379 6.095 13.762 2.272 25.055 5.654 33.191 5.335 9.362 0.295 5.588-9.129 25.505-18.115 5.72-2.637 11.824-4.363 18.017-5.457 47.816-8.35 63.018-62.927 89.986-38.22 24.211 23.375 18.265 113.55 34.668 101.44 4.482-3.661 24.413-31.763 59.137-28.128-0.028 7 0 14.005-0.014 21.01-8.732 7.452-10.102 5.614-35.94 38.188-10.113 10.425-27.325 9.872-35.79 21.968-3.335 4.573-3.933 12.074-12.434 16.206-10.469 5.072-21.733 0.938-32.008 2.304-8.862 1.104-12.551 13.232-31.464 13.212-22.061 0.256-52.026-15.998-66.452-25.763-11.86 34.182 11.252 89.02-28.353 134.89-13.878 16.435-48.343 44.712-49.603 45.587-6.93 4.889-14.859 8.295-21.273 13.921-13.71 11.744-25.965 25.064-39.942 36.508-0.524 0.413-65.059 44.081-69.089 46.37-24.107 13.789-48.733 15.014-75.333 21.742-3.388 1.107-5.776 3.88-8.591 5.907 9.921 12.915 19.772 20.587 26.448 30.009 6.226 8.366 9.243 18.561 14.977 27.223 3.635 5.859 23.997 21.453 10.482 53.08-2.27 4.816-12.483 5.827-18.275 6.353-21.696 1.611-20.351 0.251-30.493-5.579-18.385-11.807-10.934-2.427-183.54-18.172-5.339-0.464-10.515-2.843-15.938-2.013-1.267-0.966-2.501-2.177-4.181-2.257-11.501-1.186-17.967-11.535-34.786-11.354-1.206-1.229-1.985-2.928-3.322-4.077-9.331-8.596-26.495-11.854-34.256-3.477-1.741 1.839-3.261 4.223-5.87 4.894-77.798 20.301-35.328 4.613-118.02 36.808-5.56 2.215-11.228 4.331-17.182 5.156-33.937 3.533-67.854 7.362-101.89 9.755-17.817 1.43-23.748-6.211-51.658-2.018-16.446 2.786-12.766 3.635-20.218 5.335-4.316 0.967-14.116-3.038-34.392 6.968-19.85 9.653-49.986 31.51-64.842 14.231-4.415-5.791-11.233-20.068-10.716-27.072-1.729-40.722-5.789-50.955 33.81-94.106 47.435-51.163 53.853-29.658 150.28-22.211 2.275-2.4 5.06-9.409 5.255-11.786-26.059-22.308-44.334-11.941-74.132-24.9-18.359-8.352-38.671-10.167-58.18-14.343-48.614-10.321-94.162-48.683-174.13-113.18-1.046-0.957-2.454-1.609-3.125-2.895-0.746-2.308-0.296-4.88-1.412-7.08-3.939-7.728-6.695-17.706-12.34-19.687-26.989-10.052-33.038-38.666-51.503-56.796-4.054-4.941-4.298-11.716-4.856-17.797-0.322-5.244-3.605-41.583-3.434-45.526-51.306 32.979-105.94 35.208-165.37 25.435-12.218-2.044-22.562-11.203-24.107-24.262-1.272-13.484-7.441-25.777-10.402-38.872-16.505-63.508 4.866-72.681 6.963-80.213 2.76-14.791 8.776-22.755 23.797-19.364 41.033 10.377 34.373 9.417 37.639 11.594 1.75 0.671 3.678 0.38 5.518 0.469 17.337 0.938 33.786 7.132 49.673 13.696 81.282 33.562 85.265 24.511 116.82 22.015 3.725-0.206 5.921-3.843 9.398-4.739 70.009-17.002 62.005-10.948 104.04-33.514 13.332-7.366 63.971-29.308 113.62-61.835 28.75-18.188 17.392-51.093 20.485-83.873-0.264-76.463 12.641-67.059 12.213-122.01 0.413-29.242-5.302-49.243-6.864-63.829-5.057-40.939-0.067-93.886 2.341-105.04 8.703-40.489 47.408-90.033 90.211-94.397 1.021-0.133 173.22 6.247 163.01-89.118-0.833-37.969 11.387-52.574-33.585-89.555-7.115-6.239-37.998-50.042-32.463-72.424 2.661-13.481 7.253-9.346 6.892-28.044-3.896-71.544 1.396-57.347 3.983-84.426 3.649-37.581 42.237-90.082 86.097-102.44 5.527-1.402 5.591-5.105 9.882-10.976m-161.62 847.64c-2.947 54.025 2.64 155.42-51.175 198.01-6.318 4.861-28.421 14.165-29.423 14.583-24.692 10.296-32.314 2.503-39.558 3.04-6.644 0.286-13.1 2.191-19.72 2.693 4.837 3.566 9.881 6.836 14.808 10.285-0.258 1.469-0.525 2.956-0.798 4.438-14.512-1.028-29.081-1.422-43.597-2.421 0.948 7.878 2.05 15.737 3.069 23.605 108.48 70.498 116.25 81.315 159.19 22.911 11.214-14.728 19.504-31.398 26.702-48.378 18.859-43.667 17.906-59.13 19.016-77.187 2.987-53.458-5.675-68.518-13.114-85.881-8.07-19.701-11.331-40.862-17.088-61.258-1.152-3.236-0.341-0.967-8.314-4.438m414.56 115.63c-2.965 5.949-5.344 12.401-5.583 19.11-5.181 113.4 47.731 125.16 53.873 166.04 0.834 5.165-0.331 16.26 8.647 16.412 2.683-0.165 36.498-10.179 50.513-17.482 19.997-10.687 41.674-31.906 61.882-48.622-118.09-30.075-141.01-71.734-168.9-135.56-0.109 0.029-0.329 0.076-0.437 0.104m-994.31 99.108c3.152 13.497 18.469 34.948 24.811 30.873 7.167-4.13 19.763-16.107 17.041-22.075-3.347-7.981-17.937-19.356-27.091-19.382-5.114 0.285-8.701 5.246-14.761 10.584z"/>
</svg>
